# xmcd CD database file
#
# Track frame offsets:
#	150
#	19932
#	32618
#	52924
#	66349
#	82101
#	94413
#	119524
#	134618
#	155112
#	178055
#
# Disc length: 2695 seconds
#
# Revision: 0
# Processed by: cddbd v1.5.1PL2 Copyright (c) Steve Scherf et al.
# Submitted via: CDex 1.51
#
DISCID=9f0a850b
DTITLE=Cuarteto Oguere - Bonito y Sabroso
DYEAR=1900
DGENRE=Salsa
TTITLE0=Pare cochero
TTITLE1=Quizás, quizás
TTITLE2=Bonito y sabroso
TTITLE3=Chan chan
TTITLE4=Rico Vacilón
TTITLE5=Dos Gardenias
TTITLE6=Olga la Tamalera
TTITLE7=Milagro de Amor
TTITLE8=Hasta Siempre
TTITLE9=El Carnaval
TTITLE10=Olvido
EXTD=
EXTT0=
EXTT1=
EXTT2=
EXTT3=
EXTT4=
EXTT5=
EXTT6=
EXTT7=
EXTT8=
EXTT9=
EXTT10=
PLAYORDER=
